<?xml version="1.0" encoding="UTF-8" standalone="no"?>
<!DOCTYPE svg PUBLIC "-//W3C//DTD SVG 1.1//EN" "http://www.w3.org/Graphics/SVG/1.1/DTD/svg11.dtd">
<svg width="100%" height="100%" viewBox="0 0 505 347" version="1.1" xmlns="http://www.w3.org/2000/svg" xmlns:xlink="http://www.w3.org/1999/xlink" xml:space="preserve" xmlns:serif="http://www.serif.com/" style="fill-rule:evenodd;clip-rule:evenodd;stroke-linejoin:round;stroke-miterlimit:2;">
    <g transform="matrix(0.476124,0,0,0.476124,-242.864,-130.934)">
        <g id="Layer1">
        </g>
        <g transform="matrix(1.19358,0,0,1.40258,552.486,-860.401)">
            <path d="M852.712,1181.31L852.712,1289.59C852.712,1310.72 832.549,1327.88 807.715,1327.88L515.86,1327.88L515.86,809.509L807.715,809.509C832.549,809.509 852.712,826.667 852.712,847.801L852.712,1004.58C795.404,1004.58 748.878,1044.18 748.878,1092.94C748.878,1141.71 795.404,1181.31 852.712,1181.31Z" style="fill:rgb(95,70,232);"/>
        </g>
        <g transform="matrix(0.662668,0,0,1.40258,168.242,-860.401)">
            <path d="M515.86,1000.58L515.86,840.983C515.86,823.612 545.709,809.509 582.476,809.509L1417.68,809.509L1417.68,1327.88L582.476,1327.88C545.709,1327.88 515.86,1313.78 515.86,1296.41L515.86,1177.31C619.08,1177.31 702.882,1137.71 702.882,1088.94C702.882,1040.18 619.08,1000.58 515.86,1000.58Z" style="fill:rgb(255,180,77);"/>
        </g>
        <g transform="matrix(0.678131,0,0,0.678131,-261.689,-195.258)">
            <circle cx="1673.65" cy="1109.1" r="133.002" style="fill:rgb(95,70,232);"/>
        </g>
        <g transform="matrix(0.49239,0,0,0.49239,456.087,-43.2502)">
            <circle cx="1673.65" cy="1109.1" r="133.002" style="fill:rgb(255,180,77);"/>
        </g>
        <g transform="matrix(1.2946,0,0,0.982034,-452.514,-337.786)">
            <path d="M1366.9,1000.36C1367.65,1001.34 1371.93,1006.92 1371.98,1016.41C1371.99,1019.34 1371.59,1022.32 1370.76,1025.04C1369.91,1027.84 1368.35,1030.17 1367.04,1032.64C1366.68,1033.32 1359.39,1044.32 1358.72,1045.33C1304.89,1126.51 1224.8,1226.62 1114.55,1219.38C1068.52,1216.35 1030.05,1195.28 1003.95,1177.33C1000.9,1175.24 997.259,1170.8 996.728,1170.15C994.747,1167.74 983.442,1153.96 982.548,1129.83C982.113,1118.07 984.589,1108.99 985.057,1107.27C985.063,1107.25 988.926,1096.55 988.931,1096.54C990.733,1093.39 992.308,1090 994.338,1087.11C996.169,1084.5 1006.6,1069.64 1024.91,1068.45C1033.83,1067.86 1040.73,1071.11 1042.04,1071.72C1048.99,1074.99 1048.78,1075.61 1054.83,1081.18C1131.54,1151.7 1208.56,1136.65 1300.2,1045.98C1322.61,1023.81 1341.93,1000.97 1342.41,1000.53C1344.3,998.842 1345.97,996.633 1348.07,995.458C1350.1,994.318 1352.36,993.744 1354.57,993.727C1361.76,993.673 1366.14,999.375 1366.9,1000.36Z" style="fill:white;stroke:white;stroke-width:7.56px;"/>
        </g>
    </g>
</svg>
