<?xml version="1.0" encoding="UTF-8" standalone="no"?>
<!DOCTYPE svg PUBLIC "-//W3C//DTD SVG 1.1//EN" "http://www.w3.org/Graphics/SVG/1.1/DTD/svg11.dtd">
<svg width="100%" height="100%" viewBox="0 0 249 171" version="1.1" xmlns="http://www.w3.org/2000/svg" xmlns:xlink="http://www.w3.org/1999/xlink" xml:space="preserve" xmlns:serif="http://www.serif.com/" style="fill-rule:evenodd;clip-rule:evenodd;stroke-linejoin:round;stroke-miterlimit:2;">
    <g transform="matrix(0.329122,0,0,0.329122,-267.931,-266.427)">
        <g transform="matrix(0.850988,0,0,1,844.309,0)">
            <path d="M515.86,1126.92L515.86,809.509L807.715,809.509C832.549,809.509 852.712,826.667 852.712,847.801L852.712,1004.58C795.404,1004.58 748.878,1044.18 748.878,1092.94C748.878,1141.71 795.404,1181.31 852.712,1181.31L852.712,1289.59C852.712,1310.72 832.549,1327.88 807.715,1327.88L515.86,1327.88L515.86,1199.32C565.111,1174.46 605.39,1139.68 637.273,1108.64C638.042,1107.9 646.381,1099.73 646.794,1099.22C648.533,1097.1 650.494,1095.04 651.624,1092.64C652.871,1089.99 653.491,1087.08 653.472,1084.23C653.41,1074.96 646.905,1069.51 645.769,1068.56C644.626,1067.6 638.018,1062.05 627.168,1062.1C623.801,1062.12 620.368,1062.69 617.268,1063.81C614.549,1064.79 612.306,1066.54 609.865,1067.96C609.343,1068.26 588.252,1084.33 563.806,1099.94C547.4,1110.42 531.443,1119.43 515.86,1126.92ZM609.672,925.276C579.389,925.276 554.804,946.198 554.804,971.968C554.804,997.738 579.389,1018.66 609.672,1018.66C639.954,1018.66 664.539,997.738 664.539,971.968C664.539,946.198 639.954,925.276 609.672,925.276Z" style="fill:white;"/>
        </g>
        <g transform="matrix(0.472464,0,0,1,570.353,0)">
            <path d="M1417.68,1213.23L1417.68,1327.88L582.476,1327.88C545.709,1327.88 515.86,1313.78 515.86,1296.41L515.86,1177.31C619.08,1177.31 702.882,1137.71 702.882,1088.94C702.882,1040.18 619.08,1000.58 515.86,1000.58L515.86,840.983C515.86,823.612 545.709,809.509 582.476,809.509L1417.68,809.509L1417.68,1152.93C1314.75,1168.18 1219.24,1161 1123.99,1129.61C1112.16,1125.71 1112.57,1125.28 1098.99,1122.99C1096.44,1122.56 1082.95,1120.29 1065.53,1120.7C1029.75,1121.53 1009.38,1131.94 1005.8,1133.76C1001.83,1135.79 998.757,1138.16 995.237,1140.37C995.226,1140.37 987.68,1147.86 987.667,1147.88C986.754,1149.08 981.916,1155.44 982.767,1163.67C984.513,1180.57 1006.6,1190.22 1010.47,1191.91C1011.5,1192.36 1018.62,1195.47 1024.57,1196.93C1075.57,1209.5 1150.72,1224.26 1240.64,1226.37C1304.82,1227.88 1363.77,1222.72 1417.68,1213.23ZM596.246,847.489C596.246,873.475 596.246,968.421 596.246,968.421C704.605,984.559 783.268,1032.45 783.268,1088.94C783.268,1145.44 704.605,1193.33 596.246,1209.47L596.246,1289.9L1337.3,1289.9L1337.3,1262.06C1305.03,1264.29 1271.49,1265.13 1236.64,1264.31C1132.98,1261.87 1046.19,1245.1 987.395,1230.61L955.906,1219.8C948.462,1216.55 905.834,1198.03 902.475,1165.53C900.834,1149.64 910.249,1137.36 912.013,1135.04L931.09,1117.48C936.217,1114.27 941.014,1110.92 946.792,1107.97C953.668,1104.46 992.749,1084.37 1061.56,1082.76C1095.11,1081.98 1121.08,1086.39 1125.98,1087.22C1149.69,1091.21 1149.34,1091.66 1169.97,1098.46C1224.89,1116.56 1279.83,1124.36 1337.3,1122.05L1337.3,847.489L596.246,847.489Z" style="fill:white;"/>
        </g>
        <g transform="matrix(0.445202,0,0,0.445202,320.842,502.486)">
            <circle cx="1673.65" cy="1109.1" r="133.002" style="fill:white;"/>
        </g>
    </g>
</svg>
