<?xml version="1.0" encoding="UTF-8" standalone="no"?>
<!DOCTYPE svg PUBLIC "-//W3C//DTD SVG 1.1//EN" "http://www.w3.org/Graphics/SVG/1.1/DTD/svg11.dtd">
<svg width="100%" height="100%" viewBox="0 0 272 35" version="1.1" xmlns="http://www.w3.org/2000/svg" xmlns:xlink="http://www.w3.org/1999/xlink" xml:space="preserve" xmlns:serif="http://www.serif.com/" style="fill-rule:evenodd;clip-rule:evenodd;stroke-linejoin:round;stroke-miterlimit:2;">
    <g transform="matrix(0.342866,0,0,0.325687,-529.724,-389.91)">
        <path d="M1740.78,1287.2C1742.4,1271.38 1743.38,1253.97 1743.71,1234.96L1722.91,1235.49L1723.15,1230.07C1723.28,1227.18 1723.38,1224 1723.44,1220.55C1732.69,1220.62 1743.46,1220.65 1755.77,1220.65L1767.83,1220.6L1779.55,1220.6L1785.89,1220.55L1785.6,1225.29C1785.47,1227.83 1785.37,1229.93 1785.31,1231.59C1785.28,1233.25 1785.26,1234.5 1785.26,1235.35C1778.29,1235.02 1772.55,1234.86 1768.02,1234.86L1764.61,1234.86C1764.12,1240.62 1763.74,1245.94 1763.48,1250.83C1763.12,1257.83 1762.85,1264.63 1762.65,1271.24C1762.46,1277.81 1762.36,1283.13 1762.36,1287.2C1757.02,1287.14 1753.57,1287.11 1752.01,1287.11C1750.61,1287.11 1746.87,1287.14 1740.78,1287.2Z" style="fill:white;fill-rule:nonzero;"/>
        <path d="M1787.61,1287.2C1789.49,1261.06 1790.44,1240.95 1790.44,1226.85L1790.39,1220.55C1796.09,1220.62 1799.89,1220.65 1801.81,1220.65C1802.69,1220.65 1806.19,1220.62 1812.31,1220.55C1811.73,1227.88 1811.26,1234.81 1810.9,1241.35C1810.44,1250.47 1810.12,1259 1809.92,1266.94C1809.73,1274.85 1809.63,1281.6 1809.63,1287.2L1799.62,1287.11C1797.66,1287.11 1793.66,1287.14 1787.61,1287.2Z" style="fill:white;fill-rule:nonzero;"/>
        <path d="M1877.31,1270.94C1876.91,1272.86 1876.44,1275.55 1875.89,1279C1875.34,1282.42 1874.96,1285.07 1874.77,1286.96C1867.8,1287.97 1861.58,1288.47 1856.11,1288.47C1850.84,1288.47 1845.92,1287.82 1841.37,1286.52C1836.84,1285.18 1832.68,1283.02 1828.87,1280.03C1825.09,1277 1822.39,1273.45 1820.76,1269.38C1819.13,1265.31 1818.32,1260.76 1818.32,1255.71C1818.32,1249.82 1819.41,1244.53 1821.59,1239.84C1823.81,1235.12 1826.96,1231.2 1831.06,1228.07C1835.2,1224.91 1839.72,1222.67 1844.64,1221.33C1849.55,1219.97 1854.63,1219.28 1859.87,1219.28C1864.69,1219.28 1870.65,1219.9 1877.74,1221.14L1877.84,1225.24C1877.91,1227.03 1878.01,1229 1878.13,1231.15L1878.48,1236.71C1874.67,1235.8 1871.58,1235.18 1869.2,1234.86C1866.86,1234.53 1864.67,1234.37 1862.66,1234.37C1858.26,1234.37 1854.31,1235.25 1850.79,1237.01C1847.28,1238.77 1844.51,1241.32 1842.49,1244.67C1840.47,1248.03 1839.46,1251.74 1839.46,1255.81C1839.46,1259.52 1840.31,1262.71 1842,1265.38C1843.69,1268.01 1845.97,1270.07 1848.84,1271.53C1851.74,1272.96 1855.3,1273.68 1859.53,1273.68C1861.84,1273.68 1864.35,1273.5 1867.05,1273.14C1869.79,1272.75 1873.2,1272.02 1877.31,1270.94Z" style="fill:white;fill-rule:nonzero;"/>
        <path d="M1884.58,1287.2C1885.2,1281.12 1885.64,1276.07 1885.9,1272.07C1886.39,1264.97 1886.91,1255.25 1887.46,1242.92C1887.85,1234.32 1888.05,1228.27 1888.05,1224.75L1888.05,1220.55C1893.49,1220.62 1897.23,1220.65 1899.28,1220.65C1900.65,1220.65 1904.16,1220.62 1909.83,1220.55L1907.53,1257.03L1906.36,1287.2L1895.76,1287.11C1894.27,1287.11 1890.54,1287.14 1884.58,1287.2ZM1909.05,1252.05L1919.98,1237.15L1928.82,1224.75L1931.56,1220.55C1937.61,1220.62 1941.71,1220.65 1943.86,1220.65C1944.44,1220.65 1948.34,1220.62 1955.53,1220.55L1934.92,1246.58L1931.07,1251.8L1934.68,1257.57L1955.09,1287.2L1943.08,1287.11C1940.47,1287.11 1936.06,1287.14 1929.85,1287.2C1925.65,1279.29 1918.71,1267.57 1909.05,1252.05Z" style="fill:white;fill-rule:nonzero;"/>
        <path d="M1959.34,1287.2C1961.23,1261.06 1962.17,1240.95 1962.17,1226.85L1962.12,1220.55C1967.82,1220.62 1971.63,1220.65 1973.55,1220.65C1974.43,1220.65 1977.93,1220.62 1984.05,1220.55C1983.46,1227.88 1982.99,1234.81 1982.63,1241.35C1982.17,1250.47 1981.85,1259 1981.65,1266.94C1981.46,1274.85 1981.36,1281.6 1981.36,1287.2L1971.35,1287.11C1969.4,1287.11 1965.39,1287.14 1959.34,1287.2Z" style="fill:white;fill-rule:nonzero;"/>
        <path d="M2006.17,1287.2C2007.8,1271.38 2008.77,1253.97 2009.1,1234.96L1988.3,1235.49L1988.54,1230.07C1988.67,1227.18 1988.77,1224 1988.83,1220.55C1998.08,1220.62 2008.85,1220.65 2021.16,1220.65L2033.22,1220.6L2044.94,1220.6L2051.28,1220.55L2050.99,1225.29C2050.86,1227.83 2050.76,1229.93 2050.7,1231.59C2050.67,1233.25 2050.65,1234.5 2050.65,1235.35C2043.68,1235.02 2037.94,1234.86 2033.41,1234.86L2030,1234.86C2029.51,1240.62 2029.13,1245.94 2028.87,1250.83C2028.52,1257.83 2028.24,1264.63 2028.04,1271.24C2027.85,1277.81 2027.75,1283.13 2027.75,1287.2C2022.41,1287.14 2018.96,1287.11 2017.4,1287.11C2016,1287.11 2012.26,1287.14 2006.17,1287.2Z" style="fill:white;fill-rule:nonzero;"/>
        <path d="M2075.75,1287.2C2076.57,1278.81 2077.15,1271.77 2077.51,1266.11C2077.9,1260.44 2078.28,1252.93 2078.63,1243.55C2079.02,1234.14 2079.22,1227.91 2079.22,1224.85L2079.17,1220.55C2086.85,1220.62 2096.15,1220.65 2107.05,1220.65C2117.11,1220.65 2125.98,1220.62 2133.66,1220.55L2133.56,1222.16C2133.53,1222.56 2133.45,1223.97 2133.32,1226.41L2133.03,1231.73C2132.96,1232.87 2132.93,1234.03 2132.93,1235.2C2126.65,1234.94 2121.37,1234.81 2117.11,1234.81C2112.42,1234.81 2109.25,1234.83 2107.59,1234.86C2105.96,1234.86 2103.41,1234.92 2099.92,1235.06L2099.34,1246.24C2103.18,1246.33 2107.65,1246.38 2112.76,1246.38C2114.59,1246.38 2119.44,1246.27 2127.31,1246.04C2126.99,1250.21 2126.68,1255.17 2126.39,1260.93C2120.76,1260.87 2116.43,1260.84 2113.4,1260.84C2108.91,1260.84 2103.88,1260.95 2098.31,1261.18L2097.72,1273.04L2103.34,1273.04C2105,1273.04 2108.43,1272.99 2113.64,1272.9L2123.75,1272.65C2125.25,1272.62 2127.75,1272.49 2131.27,1272.26C2130.88,1277.08 2130.55,1282.06 2130.29,1287.2C2122.35,1287.14 2113.64,1287.11 2104.17,1287.11L2082.69,1287.15L2075.75,1287.2Z" style="fill:white;fill-rule:nonzero;"/>
        <path d="M2130.98,1287.2L2135.03,1280.17L2160.28,1232.61L2162.96,1227.29C2163.74,1225.73 2164.83,1223.48 2166.23,1220.55C2171.96,1220.62 2176.14,1220.65 2178.78,1220.65C2183.37,1220.65 2187.62,1220.62 2191.53,1220.55L2198.65,1240.91L2213.16,1280.07L2215.99,1287.2C2210.36,1287.14 2206.94,1287.11 2205.73,1287.11C2203,1287.11 2198.98,1287.14 2193.67,1287.2C2192.24,1281.83 2190.17,1275.52 2187.47,1268.26L2162.86,1268.26C2160.03,1273.99 2157.1,1280.3 2154.07,1287.2C2148.02,1287.14 2144.31,1287.11 2142.94,1287.11C2140.47,1287.11 2136.48,1287.14 2130.98,1287.2ZM2168.77,1254.05L2183.96,1254.05C2180.18,1242.56 2178.11,1236.23 2177.76,1235.06C2175.61,1239.84 2173.78,1243.76 2172.29,1246.82L2168.77,1254.05Z" style="fill:white;fill-rule:nonzero;"/>
        <path d="M2218.53,1286.18C2218.11,1279.24 2217.62,1273.69 2217.06,1269.53C2220.71,1271.15 2223.95,1272.29 2226.78,1272.94C2229.65,1273.56 2232.15,1273.87 2234.3,1273.87C2237.13,1273.87 2239.38,1273.47 2241.04,1272.65C2242.73,1271.81 2243.58,1270.57 2243.58,1268.94C2243.58,1268.39 2243.5,1267.87 2243.33,1267.38C2243.17,1266.86 2242.86,1266.29 2242.41,1265.67C2241.95,1265.02 2241.3,1264.32 2240.45,1263.57L2231.27,1255.56C2229.12,1253.74 2227.63,1252.42 2226.78,1251.61C2225.06,1249.95 2223.7,1248.4 2222.73,1246.97C2221.78,1245.54 2221.09,1244.09 2220.63,1242.62C2220.21,1241.13 2219.99,1239.55 2219.99,1237.89C2219.99,1235.9 2220.34,1233.96 2221.02,1232.08C2221.74,1230.16 2222.79,1228.37 2224.19,1226.7C2225.59,1225.05 2227.45,1223.61 2229.76,1222.41C2232.07,1221.2 2234.55,1220.39 2237.18,1219.97C2239.82,1219.51 2242.54,1219.28 2245.34,1219.28C2250.84,1219.28 2256.83,1219.92 2263.3,1221.19C2263.4,1223.43 2263.52,1225.5 2263.65,1227.39C2263.78,1229.24 2264.09,1232.52 2264.57,1237.2C2261.58,1236 2258.85,1235.17 2256.37,1234.71C2253.9,1234.23 2251.76,1233.98 2249.97,1233.98C2247.44,1233.98 2245.32,1234.45 2243.63,1235.4C2241.97,1236.34 2241.14,1237.51 2241.14,1238.91C2241.14,1239.56 2241.27,1240.2 2241.53,1240.82C2241.79,1241.43 2242.28,1242.17 2242.99,1243.01C2243.71,1243.83 2244.65,1244.74 2245.82,1245.75C2247,1246.73 2248.84,1248.19 2251.34,1250.14L2254.86,1252.93C2255.9,1253.77 2257.02,1254.8 2258.23,1256C2259.43,1257.21 2260.47,1258.39 2261.35,1259.57C2262.23,1260.74 2262.9,1261.81 2263.35,1262.79C2263.84,1263.77 2264.2,1264.76 2264.43,1265.77C2264.66,1266.74 2264.77,1267.8 2264.77,1268.94C2264.77,1271.87 2264.07,1274.67 2262.67,1277.34C2261.27,1279.98 2259.28,1282.16 2256.71,1283.88C2254.14,1285.58 2251.31,1286.76 2248.22,1287.45C2245.16,1288.13 2241.92,1288.47 2238.5,1288.47C2233.23,1288.47 2226.57,1287.71 2218.53,1286.18Z" style="fill:white;fill-rule:nonzero;"/>
        <path d="M2286.5,1287.2C2286.83,1284.57 2287.22,1280.09 2287.67,1273.78C2288.13,1267.46 2288.36,1263 2288.36,1260.4L2265.99,1220.55C2270.91,1220.62 2274.96,1220.65 2278.15,1220.65C2281.21,1220.65 2284.87,1220.62 2289.14,1220.55C2290.44,1223.81 2292.2,1227.7 2294.41,1232.22C2296.66,1236.71 2298.48,1240.74 2299.88,1244.28C2303.62,1237.67 2306.63,1232.53 2308.91,1228.85C2311.19,1225.14 2312.82,1222.38 2313.8,1220.55C2317.93,1220.62 2321.9,1220.65 2325.71,1220.65C2327.73,1220.65 2331.39,1220.62 2336.7,1220.55L2315.26,1252.14C2310.99,1258.46 2308.86,1261.76 2308.86,1262.06L2308.81,1262.55L2308.81,1263.03L2308.77,1263.52L2308.42,1270.94C2308.2,1275.86 2308.02,1281.28 2307.89,1287.2C2303.3,1287.14 2299.75,1287.11 2297.24,1287.11C2294.67,1287.11 2291.09,1287.14 2286.5,1287.2Z" style="fill:white;fill-rule:nonzero;"/>
    </g>
    <g transform="matrix(0.0666284,0,0,0.0666284,-54.2408,-53.9364)">
        <g>
            <g transform="matrix(0.850988,0,0,1,844.309,0)">
                <path d="M515.86,1126.92L515.86,809.509L807.715,809.509C832.549,809.509 852.712,826.667 852.712,847.801L852.712,1004.58C795.404,1004.58 748.878,1044.18 748.878,1092.94C748.878,1141.71 795.404,1181.31 852.712,1181.31L852.712,1289.59C852.712,1310.72 832.549,1327.88 807.715,1327.88L515.86,1327.88L515.86,1199.32C565.111,1174.46 605.39,1139.68 637.273,1108.64C638.042,1107.9 646.381,1099.73 646.794,1099.22C648.533,1097.1 650.494,1095.04 651.624,1092.64C652.871,1089.99 653.491,1087.08 653.472,1084.23C653.41,1074.96 646.905,1069.51 645.769,1068.56C644.626,1067.6 638.018,1062.05 627.168,1062.1C623.801,1062.12 620.368,1062.69 617.268,1063.81C614.549,1064.79 612.306,1066.54 609.865,1067.96C609.343,1068.26 588.252,1084.33 563.806,1099.94C547.4,1110.42 531.443,1119.43 515.86,1126.92ZM609.672,925.276C579.389,925.276 554.804,946.198 554.804,971.968C554.804,997.738 579.389,1018.66 609.672,1018.66C639.954,1018.66 664.539,997.738 664.539,971.968C664.539,946.198 639.954,925.276 609.672,925.276Z" style="fill:white;"/>
            </g>
            <g transform="matrix(0.472464,0,0,1,570.353,0)">
                <path d="M1417.68,1213.23L1417.68,1327.88L582.476,1327.88C545.709,1327.88 515.86,1313.78 515.86,1296.41L515.86,1177.31C619.08,1177.31 702.882,1137.71 702.882,1088.94C702.882,1040.18 619.08,1000.58 515.86,1000.58L515.86,840.983C515.86,823.612 545.709,809.509 582.476,809.509L1417.68,809.509L1417.68,1152.93C1314.75,1168.18 1219.24,1161 1123.99,1129.61C1112.16,1125.71 1112.57,1125.28 1098.99,1122.99C1096.44,1122.56 1082.95,1120.29 1065.53,1120.7C1029.75,1121.53 1009.38,1131.94 1005.8,1133.76C1001.83,1135.79 998.757,1138.16 995.237,1140.37C995.226,1140.37 987.68,1147.86 987.667,1147.88C986.754,1149.08 981.916,1155.44 982.767,1163.67C984.513,1180.57 1006.6,1190.22 1010.47,1191.91C1011.5,1192.36 1018.62,1195.47 1024.57,1196.93C1075.57,1209.5 1150.72,1224.26 1240.64,1226.37C1304.82,1227.88 1363.77,1222.72 1417.68,1213.23ZM596.246,847.489C596.246,873.475 596.246,968.421 596.246,968.421C704.605,984.559 783.268,1032.45 783.268,1088.94C783.268,1145.44 704.605,1193.33 596.246,1209.47L596.246,1289.9L1337.3,1289.9L1337.3,1262.06C1305.03,1264.29 1271.49,1265.13 1236.64,1264.31C1132.98,1261.87 1046.19,1245.1 987.395,1230.61L955.906,1219.8C948.462,1216.55 905.834,1198.03 902.475,1165.53C900.834,1149.64 910.249,1137.36 912.013,1135.04L931.09,1117.48C936.217,1114.27 941.014,1110.92 946.792,1107.97C953.668,1104.46 992.749,1084.37 1061.56,1082.76C1095.11,1081.98 1121.08,1086.39 1125.98,1087.22C1149.69,1091.21 1149.34,1091.66 1169.97,1098.46C1224.89,1116.56 1279.83,1124.36 1337.3,1122.05L1337.3,847.489L596.246,847.489Z" style="fill:white;"/>
            </g>
            <g transform="matrix(0.445202,0,0,0.445202,320.842,502.486)">
                <circle cx="1673.65" cy="1109.1" r="133.002" style="fill:white;"/>
            </g>
        </g>
    </g>
</svg>
